<svg width="19" height="19" viewBox="0 0 19 19" fill="none" xmlns="http://www.w3.org/2000/svg">
<g clip-path="url(#clip0_144_2208)">
<path d="M12.0909 11.2272V17.2727H9.5V11.2272H7.77273C7.29575 11.2272 6.90909 10.8405 6.90909 10.3636V9.49991C6.90909 9.02293 7.29576 8.63628 7.77273 8.63628H9.5V6.4772C9.5 5.18175 10.7955 3.69028 12.9545 3.69028C12.9545 3.69028 13.9654 3.69028 15.0975 3.98902C15.3673 4.06021 15.5455 4.31033 15.5455 4.5893V5.18175C15.5455 5.65872 15.1588 6.04539 14.6818 6.04539H12.9545C12.5227 6.04539 12.0909 6.4772 12.0909 6.90902V8.63628H14.4714C14.9135 8.63628 15.2257 9.06939 15.0859 9.48886L14.7033 10.6366C14.5857 10.9893 14.2557 11.2272 13.884 11.2272H12.0909Z" fill="white" fill-opacity="0.5"/>
<path d="M13.3254 -0.029541H5.77307C2.51366 -0.029541 -0.0302734 2.51439 -0.0302734 5.69431V13.2466C-0.0302734 16.4265 2.51366 18.9705 5.69358 18.9705H13.2459C16.4258 18.9705 18.9697 16.4265 18.9697 13.2466V5.69431C19.0492 2.51439 16.5053 -0.029541 13.3254 -0.029541ZM17.2208 13.3261C17.2208 15.4726 15.4718 17.301 13.2459 17.301H5.69358C3.54713 17.301 1.71868 15.552 1.71868 13.3261V5.77381C1.71868 3.62736 3.46763 1.79891 5.69358 1.79891H13.2459C15.3923 1.79891 17.2208 3.54787 17.2208 5.77381V13.3261Z" fill="white" fill-opacity="0.5"/>
</g>
<defs>
<clipPath id="clip0_144_2208">
<rect width="19" height="19" fill="white"/>
</clipPath>
</defs>
</svg>
