<svg width="19" height="19" viewBox="0 0 19 19" fill="none" xmlns="http://www.w3.org/2000/svg">
<g clip-path="url(#clip0_143_2198)">
<path d="M14.5173 3.46826C13.8813 3.46826 13.4043 3.94525 13.4043 4.58123C13.4043 5.21722 13.8813 5.6942 14.5173 5.6942C15.1533 5.6942 15.6302 5.21722 15.6302 4.58123C15.6302 3.94525 15.1533 3.46826 14.5173 3.46826Z" fill="white" fill-opacity="0.5"/>
<path d="M9.51069 4.89941C6.88726 4.89941 4.82031 7.04586 4.82031 9.58979C4.82031 12.1337 6.96676 14.2802 9.51069 14.2802C12.0546 14.2802 14.2011 12.1337 14.2011 9.58979C14.2011 7.04586 12.1341 4.89941 9.51069 4.89941ZM9.51069 12.6107C7.84123 12.6107 6.48977 11.2592 6.48977 9.58979C6.48977 7.92033 7.84123 6.56887 9.51069 6.56887C11.1801 6.56887 12.5316 7.92033 12.5316 9.58979C12.5316 11.2592 11.1801 12.6107 9.51069 12.6107Z" fill="white" fill-opacity="0.5"/>
<path d="M13.3254 -0.029541H5.77307C2.51366 -0.029541 -0.0302734 2.51439 -0.0302734 5.69431V13.2466C-0.0302734 16.4265 2.51366 18.9705 5.69358 18.9705H13.2459C16.4258 18.9705 18.9697 16.4265 18.9697 13.2466V5.69431C19.0492 2.51439 16.5053 -0.029541 13.3254 -0.029541ZM17.2208 13.3261C17.2208 15.4726 15.4718 17.301 13.2459 17.301H5.69358C3.54713 17.301 1.71868 15.552 1.71868 13.3261V5.77381C1.71868 3.62736 3.46763 1.79891 5.69358 1.79891H13.2459C15.3923 1.79891 17.2208 3.54787 17.2208 5.77381V13.3261Z" fill="white" fill-opacity="0.5"/>
</g>
<defs>
<clipPath id="clip0_143_2198">
<rect width="19" height="19" fill="white"/>
</clipPath>
</defs>
</svg>
