<svg width="19" height="19" viewBox="0 0 19 19" fill="none" xmlns="http://www.w3.org/2000/svg">
<g clip-path="url(#clip0_144_2213)">
<path d="M13.1347 5.9613C13.1383 5.9613 13.143 5.9613 13.1478 5.9613C13.2719 5.9613 13.387 5.99989 13.4815 6.06639L13.4797 6.06521C13.5485 6.12517 13.5949 6.20949 13.6061 6.30449V6.30627C13.618 6.37871 13.6245 6.46183 13.6245 6.54674C13.6245 6.58533 13.6234 6.62333 13.6204 6.66133V6.65599C13.4868 8.06258 12.9073 11.4737 12.6128 13.0483C12.4881 13.7151 12.2429 13.9383 12.0054 13.9597C11.4894 14.0078 11.0975 13.6189 10.5976 13.2911C9.81505 12.7775 9.3727 12.4581 8.6133 11.9576C7.73514 11.3799 8.30455 11.061 8.80449 10.5421C8.9357 10.4055 11.2104 8.3363 11.2549 8.14867C11.2573 8.13739 11.2585 8.12492 11.2585 8.11186C11.2585 8.06555 11.2412 8.02339 11.2133 7.99133C11.1825 7.97114 11.1439 7.95986 11.1035 7.95986C11.0768 7.95986 11.0512 7.96521 11.0275 7.97411L11.0287 7.97352C10.9503 7.99133 9.70026 8.81743 7.27855 10.4518C7.01433 10.6602 6.68064 10.792 6.31727 10.8075H6.3137C5.79892 10.7451 5.33164 10.6305 4.88811 10.4673L4.93205 10.4815C4.37511 10.2998 3.93277 10.2042 3.97077 9.89667C3.99095 9.73676 4.21143 9.57308 4.6322 9.40564C7.22412 8.27633 8.95253 7.53197 9.81742 7.17255C10.7716 6.66608 11.8777 6.24927 13.0409 5.97911L13.1341 5.96071L13.1347 5.9613ZM9.4582 0.608643C4.52889 0.620518 0.537109 4.61942 0.537109 9.55052C0.537109 14.4887 4.54017 18.4924 9.47899 18.4924C14.4178 18.4924 18.4209 14.4893 18.4209 9.55052C18.4209 4.61942 14.4291 0.620518 9.50095 0.608643H9.49977C9.48591 0.608643 9.47206 0.608643 9.4582 0.608643Z" fill="white" fill-opacity="0.5"/>
</g>
<defs>
<clipPath id="clip0_144_2213">
<rect width="19" height="19" fill="white"/>
</clipPath>
</defs>
</svg>
