<svg width="19" height="19" viewBox="0 0 19 19" fill="none" xmlns="http://www.w3.org/2000/svg">
<path fill-rule="evenodd" clip-rule="evenodd" d="M11.7558 4.47982C10.4065 4.47982 9.3127 5.57362 9.3127 6.92291C9.3127 7.08803 9.32893 7.24856 9.35972 7.40324C9.40928 7.65237 9.33629 7.91017 9.16347 8.09635C8.99065 8.28255 8.73898 8.37446 8.48683 8.34351C6.73864 8.12904 5.14844 7.4067 3.86792 6.3299C3.89286 6.80642 4.05805 7.31261 4.41655 7.84289L4.95392 8.63777L4.07148 9.01437L3.90121 9.08704C4.02777 9.23176 4.17993 9.38043 4.34981 9.52649C4.54257 9.69219 4.72885 9.82994 4.86722 9.92621C4.93595 9.97402 4.99172 10.0108 5.02908 10.035C5.04773 10.047 5.06172 10.0558 5.07034 10.0612L5.07914 10.0666L5.0798 10.0671L6.30585 10.8104L5.02295 11.4519C4.95943 11.4837 4.89605 11.512 4.83292 11.5372C5.09045 11.7542 5.4039 11.954 5.73737 12.1116L6.83766 12.6317L5.91618 13.4267C5.41319 13.8607 4.90722 14.1842 4.25146 14.3552C5.22311 14.8736 6.33647 15.1682 7.52101 15.1682C11.325 15.1682 14.3889 12.1325 14.3889 8.41214V8.00072L14.7255 7.76425C15.251 7.39522 15.6225 6.89617 15.8885 6.32566H14.678H14.1781L13.9633 5.87433C13.5699 5.04814 12.7284 4.47982 11.7558 4.47982ZM2.82596 10.2587C2.67672 10.4296 2.60596 10.6594 2.63842 10.8898C2.72773 11.5239 3.10746 12.0701 3.52707 12.487C3.64102 12.6002 3.76289 12.7089 3.89086 12.8125C3.8713 12.818 3.8516 12.8232 3.83171 12.8282C3.45064 12.9236 2.93714 12.9435 2.08078 12.8596C1.7497 12.8271 1.43367 13.0052 1.2898 13.3051C1.14593 13.605 1.20492 13.9629 1.43745 14.2008C2.97488 15.7738 5.13391 16.7516 7.52101 16.7516C12.0435 16.7516 15.7531 13.24 15.9629 8.80829C16.9836 7.95084 17.4946 6.79012 17.7702 5.73396C17.8322 5.49669 17.7807 5.24411 17.6307 5.05004C17.4809 4.85597 17.2495 4.74233 17.0043 4.74233H15.141C14.4249 3.6328 13.1769 2.89648 11.7558 2.89648C9.64282 2.89648 7.90996 4.52407 7.74259 6.59394C6.26298 6.21049 4.96479 5.37371 4.00539 4.23886C3.8304 4.03186 3.56167 3.92878 3.29313 3.96565C3.0246 4.00251 2.79359 4.1742 2.68087 4.4207C2.20216 5.46744 2.10991 6.67478 2.64573 7.90141L2.46071 7.98037C2.09433 8.13672 1.90122 8.54103 2.00981 8.92427C2.15616 9.44084 2.48749 9.89692 2.82596 10.2587Z" fill="white" fill-opacity="0.5"/>
</svg>
